<?xml version="1.0" encoding="UTF-8"?>
<svg xmlns="http://www.w3.org/2000/svg" xmlns:xlink="http://www.w3.org/1999/xlink" width="50pt" height="50pt" viewBox="0 0 50 50" version="1.1">
<g id="surface731579">
<path style=" stroke:none;fill-rule:nonzero;fill:rgb(20%,24.313725%,35.686275%);fill-opacity:1;" d="M 9 3 C 8.449219 3 8 3.449219 8 4 L 8 46 C 8 46.550781 8.449219 47 9 47 L 26.738281 47 C 31.339844 47 35.148438 45.8125 37.835938 43.558594 C 40.519531 41.308594 42 37.992188 42 34.066406 C 42 29.027344 38.804688 25.109375 34.1875 23.644531 C 37.578125 22 39.960938 18.460938 39.960938 14.476562 C 39.960938 11.003906 38.640625 8.050781 36.242188 6.046875 C 33.84375 4.046875 30.445312 3 26.339844 3 Z M 10 5 L 26.339844 5 C 30.105469 5 33.015625 5.960938 34.960938 7.585938 C 36.90625 9.207031 37.960938 11.492188 37.960938 14.480469 C 37.960938 18.28125 35.234375 21.773438 31.789062 22.523438 C 31.328125 22.625 31 23.03125 31 23.5 L 31 24 C 31 24.503906 31.371094 24.925781 31.871094 24.992188 C 36.777344 25.625 40 29.195312 40 34.066406 C 40 37.503906 38.78125 40.15625 36.546875 42.03125 C 34.3125 43.902344 30.996094 45 26.738281 45 L 10 45 Z M 17 9 C 16.449219 9 16 9.449219 16 10 L 16 22 C 16 22.550781 16.449219 23 17 23 L 23.058594 23 C 25.792969 23 27.996094 22.453125 29.582031 21.253906 C 31.164062 20.050781 32 18.175781 32 16 C 32 13.878906 31.234375 12.042969 29.808594 10.816406 C 28.378906 9.59375 26.375 9 23.996094 9 Z M 18 11 L 23.996094 11 C 26.042969 11 27.539062 11.507812 28.503906 12.339844 C 29.472656 13.167969 30 14.332031 30 16 C 30 17.703125 29.460938 18.832031 28.371094 19.660156 C 27.28125 20.484375 25.519531 21 23.058594 21 L 18 21 Z M 17 26 C 16.449219 26 16 26.449219 16 27 L 16 40 C 16 40.550781 16.449219 41 17 41 L 24.628906 41 C 27.5 41 29.824219 40.410156 31.484375 39.113281 C 33.140625 37.8125 34 35.800781 34 33.429688 C 34 31.085938 33.097656 29.097656 31.394531 27.832031 C 29.6875 26.566406 27.304688 26 24.34375 26 Z M 18 28 L 24.339844 28 C 27.042969 28 28.992188 28.542969 30.199219 29.441406 C 31.40625 30.335938 32 31.5625 32 33.429688 C 32 35.351562 31.410156 36.625 30.246094 37.539062 C 29.082031 38.449219 27.222656 39 24.628906 39 L 18 39 Z M 18 28 "/>
</g>
</svg>
