<?xml version="1.0" encoding="UTF-8"?>
<svg xmlns="http://www.w3.org/2000/svg" xmlns:xlink="http://www.w3.org/1999/xlink" width="50pt" height="50pt" viewBox="0 0 50 50" version="1.1">
<g id="surface731819">
<path style=" stroke:none;fill-rule:nonzero;fill:rgb(20%,24.313725%,35.686275%);fill-opacity:1;" d="M 6 3 C 5.640625 3 5.308594 3.195312 5.128906 3.507812 C 4.953125 3.820312 4.957031 4.203125 5.144531 4.511719 L 20 29.316406 L 20 46 C 20 46.550781 20.449219 47 21 47 L 29 47 C 29.550781 47 30 46.550781 30 46 L 30 29.316406 L 44.855469 4.511719 C 45.042969 4.203125 45.046875 3.820312 44.871094 3.507812 C 44.691406 3.195312 44.359375 3 44 3 L 35.847656 3 C 35.5 3 35.171875 3.183594 34.992188 3.488281 L 25 20.152344 L 15.007812 3.488281 C 14.828125 3.183594 14.5 3 14.148438 3 Z M 7.761719 5 L 13.582031 5 L 24.082031 22.511719 C 24.265625 22.816406 24.589844 23 24.941406 23 L 25.058594 23 C 25.410156 23 25.734375 22.816406 25.914062 22.511719 L 36.414062 5 L 42.234375 5 L 28.140625 28.527344 C 28.050781 28.679688 28 28.859375 28 29.039062 L 28 45 L 22 45 L 22 29.039062 C 22 28.859375 21.949219 28.679688 21.855469 28.527344 Z M 7.761719 5 "/>
</g>
</svg>
